HIERARCHY
ROOT Hips
{
  OFFSET 5.72205e-005 65.662 3.42586
  CHANNELS 6 Xposition Yposition Zposition Zrotation Xrotation Yrotation
  JOINT Chest
  {
    OFFSET 0 8.7983 -4.7612
    CHANNELS 3 Zrotation Xrotation Yrotation
    JOINT Chest2
    {
      OFFSET 0 8.0291 0.4195
      CHANNELS 3 Zrotation Xrotation Yrotation
      JOINT Chest3
      {
        OFFSET 0 9.9351 -2.2114
        CHANNELS 3 Zrotation Xrotation Yrotation
        JOINT Neck
        {
          OFFSET 0 22.3885 -0.4656
          CHANNELS 3 Zrotation Xrotation Yrotation
          JOINT Head
          {
            OFFSET -0.0001 12.643 3.4389
            CHANNELS 3 Zrotation Xrotation Yrotation
            End Site
            {
              OFFSET 0.0001 17.6655 0.5274
            }
          }
        }
        JOINT LeftCollar
        {
          OFFSET 2.2603 21.606 7.4023
          CHANNELS 3 Zrotation Xrotation Yrotation
          JOINT LeftShoulder
          {
            OFFSET 13.5163 -1.1332 -5.0146
            CHANNELS 3 Zrotation Xrotation Yrotation
            JOINT LeftElbow
            {
              OFFSET -0.0995 -28.05 -0.2431
              CHANNELS 3 Zrotation Xrotation Yrotation
              JOINT LeftWrist
              {
                OFFSET 0.0679 -23.3996 -0.1402
                CHANNELS 3 Zrotation Xrotation Yrotation
                JOINT LeftFinger1
                {
                  OFFSET 0.7932 -9.069 2.5189
                  CHANNELS 3 Zrotation Xrotation Yrotation
                  JOINT LeftFinger11
                  {
                    OFFSET -0.8272 -3.3923 0.5977
                    CHANNELS 3 Zrotation Xrotation Yrotation
                    JOINT LeftFinger12
                    {
                      OFFSET -0.5649 -2.3158 0.4082
                      CHANNELS 3 Zrotation Xrotation Yrotation
                      End Site
                      {
                        OFFSET -0.4919 -1.6479 0.2673
                      }
                    }
                  }
                }
                JOINT LeftFinger2
                {
                  OFFSET 0.9159 -9.2044 0.2193
                  CHANNELS 3 Zrotation Xrotation Yrotation
                  JOINT LeftFinger21
                  {
                    OFFSET 0.0117 -4.1944 -0.0248
                    CHANNELS 3 Zrotation Xrotation Yrotation
                    JOINT LeftFinger22
                    {
                      OFFSET 0.0071 -2.3249 -0.0142
                      CHANNELS 3 Zrotation Xrotation Yrotation
                      End Site
                      {
                        OFFSET -0.1475 -2.0882 0.0028
                      }
                    }
                  }
                }
                JOINT LeftFinger3
                {
                  OFFSET 0.6113 -8.7231 -2.0637
                  CHANNELS 3 Zrotation Xrotation Yrotation
                  JOINT LeftFinger31
                  {
                    OFFSET -0.1927 -3.8059 -0.2383
                    CHANNELS 3 Zrotation Xrotation Yrotation
                    JOINT LeftFinger32
                    {
                      OFFSET -0.1091 -2.1688 -0.1362
                      CHANNELS 3 Zrotation Xrotation Yrotation
                      End Site
                      {
                        OFFSET -0.2358 -1.9176 -0.0906
                      }
                    }
                  }
                }
                JOINT LeftFinger4
                {
                  OFFSET -0.6151 -8.0947 -3.5641
                  CHANNELS 3 Zrotation Xrotation Yrotation
                  JOINT LeftFinger41
                  {
                    OFFSET -0.4882 -2.341 -0.6462
                    CHANNELS 3 Zrotation Xrotation Yrotation
                    JOINT LeftFinger42
                    {
                      OFFSET -0.3575 -1.7167 -0.4742
                      CHANNELS 3 Zrotation Xrotation Yrotation
                      End Site
                      {
                        OFFSET -0.4187 -1.5237 -0.3496
                      }
                    }
                  }
                }
                JOINT LeftFinger0
                {
                  OFFSET -1.42 -1.8761 1.4223
                  CHANNELS 3 Zrotation Xrotation Yrotation
                  JOINT LeftFinger01
                  {
                    OFFSET -1.1471 -3.4929 2.6334
                    CHANNELS 3 Zrotation Xrotation Yrotation
                    JOINT LeftFinger02
                    {
                      OFFSET -0.823 -2.3 1.6571
                      CHANNELS 3 Zrotation Xrotation Yrotation
                      End Site
                      {
                        OFFSET -0.5822 -1.6914 1.1582
                      }
                    }
                  }
                }
              }
            }
          }
        }
        JOINT RightCollar
        {
          OFFSET -2.2603 21.606 7.4023
          CHANNELS 3 Zrotation Xrotation Yrotation
          JOINT RightShoulder
          {
            OFFSET -13.5187 -1.1334 -5.0155
            CHANNELS 3 Zrotation Xrotation Yrotation
            JOINT RightElbow
            {
              OFFSET 0.0994 -28.0499 -0.2431
              CHANNELS 3 Zrotation Xrotation Yrotation
              JOINT RightWrist
              {
                OFFSET -0.0679 -23.3996 -0.1402
                CHANNELS 3 Zrotation Xrotation Yrotation
                JOINT RightFinger1
                {
                  OFFSET -0.7932 -9.0691 2.5189
                  CHANNELS 3 Zrotation Xrotation Yrotation
                  JOINT RightFinger11
                  {
                    OFFSET 0.8272 -3.3923 0.5977
                    CHANNELS 3 Zrotation Xrotation Yrotation
                    JOINT RightFinger12
                    {
                      OFFSET 0.565 -2.3158 0.4082
                      CHANNELS 3 Zrotation Xrotation Yrotation
                      End Site
                      {
                        OFFSET 0.4919 -1.6479 0.2673
                      }
                    }
                  }
                }
                JOINT RightFinger2
                {
                  OFFSET -0.916 -9.2044 0.2193
                  CHANNELS 3 Zrotation Xrotation Yrotation
                  JOINT RightFinger21
                  {
                    OFFSET -0.0117 -4.1944 -0.0248
                    CHANNELS 3 Zrotation Xrotation Yrotation
                    JOINT RightFinger22
                    {
                      OFFSET -0.0071 -2.3249 -0.0142
                      CHANNELS 3 Zrotation Xrotation Yrotation
                      End Site
                      {
                        OFFSET 0.1475 -2.0882 0.0028
                      }
                    }
                  }
                }
                JOINT RightFinger3
                {
                  OFFSET -0.6113 -8.7231 -2.0637
                  CHANNELS 3 Zrotation Xrotation Yrotation
                  JOINT RightFinger31
                  {
                    OFFSET 0.1927 -3.8059 -0.2383
                    CHANNELS 3 Zrotation Xrotation Yrotation
                    JOINT RightFinger32
                    {
                      OFFSET 0.1091 -2.1688 -0.1362
                      CHANNELS 3 Zrotation Xrotation Yrotation
                      End Site
                      {
                        OFFSET 0.2358 -1.9176 -0.0906
                      }
                    }
                  }
                }
                JOINT RightFinger4
                {
                  OFFSET 0.6151 -8.0947 -3.564
                  CHANNELS 3 Zrotation Xrotation Yrotation
                  JOINT RightFinger41
                  {
                    OFFSET 0.4882 -2.341 -0.6462
                    CHANNELS 3 Zrotation Xrotation Yrotation
                    JOINT RightFinger42
                    {
                      OFFSET 0.3574 -1.7166 -0.4742
                      CHANNELS 3 Zrotation Xrotation Yrotation
                      End Site
                      {
                        OFFSET 0.4187 -1.5237 -0.3496
                      }
                    }
                  }
                }
                JOINT RightFinger0
                {
                  OFFSET 1.4199 -1.8761 1.4221
                  CHANNELS 3 Zrotation Xrotation Yrotation
                  JOINT RightFinger01
                  {
                    OFFSET 1.1472 -3.4929 2.6336
                    CHANNELS 3 Zrotation Xrotation Yrotation
                    JOINT RightFinger02
                    {
                      OFFSET 0.8229 -2.3 1.6571
                      CHANNELS 3 Zrotation Xrotation Yrotation
                      End Site
                      {
                        OFFSET 0.5822 -1.6914 1.1582
                      }
                    }
                  }
                }
              }
            }
          }
        }
      }
    }
  }
  JOINT RightHip
  {
    OFFSET -9.412 3.9771 -0.7758
    CHANNELS 3 Zrotation Xrotation Yrotation
    JOINT RightKnee
    {
      OFFSET -0.7531 -40.938 0
      CHANNELS 3 Zrotation Xrotation Yrotation
      JOINT RightAnkle
      {
        OFFSET 0 -40.1986 0
        CHANNELS 3 Zrotation Xrotation Yrotation
        JOINT RightToe
        {
          OFFSET 0 -4.4182 9.239
          CHANNELS 3 Zrotation Xrotation Yrotation
          End Site
          {
            OFFSET 0 0 6.1981
          }
        }
      }
    }
  }
  JOINT LeftHip
  {
    OFFSET 9.4119 3.9773 -0.7758
    CHANNELS 3 Zrotation Xrotation Yrotation
    JOINT LeftKnee
    {
      OFFSET 0.7532 -40.9383 0
      CHANNELS 3 Zrotation Xrotation Yrotation
      JOINT LeftAnkle
      {
        OFFSET 0 -40.1986 0
        CHANNELS 3 Zrotation Xrotation Yrotation
        JOINT LeftToe
        {
          OFFSET 0 -4.4182 9.239
          CHANNELS 3 Zrotation Xrotation Yrotation
          End Site
          {
            OFFSET 0 0 6.1981
          }
        }
      }
    }
  }
}
MOTION
Frames:	4
Frame Time:	0.0333333
1.63373 39.6625 -0.164279 5.86645e-009 33.4499 -1.06429e-008 0.245496 -1.59593 -0.268425 0.483787 -3.19299 -0.530313 0.483789 -3.193 -0.530314 1.14609e-005 -9.12508 -1.5651e-005 11.6474 -3.35183 0.420234 -39.3021 21.77 -42.9095 51.3062 29.4147 22.6527 -24.5857 -33.8267 -10.9792 41.684 -43.9981 42.0887 -9.10895e-007 4.48416e-006 4.11054e-006 1.59028e-015 3.18055e-015 7.95139e-016 2.38542e-015 3.18055e-015 -2.38542e-015 -9.10895e-007 4.48416e-006 4.11054e-006 -0.0128132 0.00229922 8.30794e-005 2.38542e-015 0 -3.97569e-016 -9.10895e-007 4.48416e-006 4.11054e-006 -0.0160417 0.00298507 0.000858815 1.54487e-031 3.18055e-015 -2.78299e-015 -9.10895e-007 4.48416e-006 4.11054e-006 -0.0125818 0.00310869 0.00282566 -7.95139e-016 3.18055e-015 1.19271e-015 -9.10895e-007 4.48416e-006 4.11054e-006 1.59028e-015 3.18055e-015 7.95139e-016 2.38542e-015 3.18055e-015 -2.38542e-015 34.3547 19.975 37.613 -53.4684 26.4247 -18.5904 23.0419 -32.7938 9.95159 -34.9148 -45.5271 -40.9166 -7.95139e-016 0 -7.95139e-016 -7.95139e-016 0 -7.95139e-016 -7.95139e-016 -3.18055e-015 -0 -7.95139e-016 0 -7.95139e-016 0.0129981 0.00232259 -9.45062e-005 7.95139e-016 -6.36111e-015 -2.38542e-015 -7.95139e-016 0 -7.95139e-016 0.0163351 0.00302644 -0.000879056 7.95139e-016 0 -7.95139e-016 -7.95139e-016 0 -7.95139e-016 0.0146026 0.0036679 -0.00326182 -2.64834e-031 -6.36111e-015 -2.38542e-015 -7.95139e-016 0 -7.95139e-016 -7.95139e-016 0 -7.95139e-016 -7.95139e-016 -3.18055e-015 -0 -60.9844 -19.1336 -21.9258 -176.82 84.8017 175.527 47.3426 36.1204 -52.856 8.04954e-006 -5.09454e-006 4.71047e-006 60.9634 -19.1482 21.901 177.078 84.8034 -175.779 -47.3726 36.1155 52.8642 2.00053e-005 -1.82874e-006 2.43727e-006 
1.63373 39.6917 -0.420609 -2.62783e-008 33.9008 -7.57674e-008 0.246 -1.61602 -0.267471 0.484736 -3.23314 -0.528309 0.484735 -3.23314 -0.528309 1.60826e-005 -9.93253 -2.16604e-005 11.5812 -3.94454 0.531096 -38.9673 21.484 -43.2587 51.17 29.4208 22.7076 -24.8573 -34.0457 -11.1347 41.7243 -43.7961 41.9968 7.95139e-016 -3.18055e-015 7.95139e-016 7.95139e-016 -6.36111e-015 -1.59028e-015 1.32417e-031 -6.36111e-015 1.19271e-015 7.95139e-016 -3.18055e-015 7.95139e-016 -0.0128241 0.00231197 8.89441e-005 2.38542e-015 6.36111e-015 7.95139e-016 7.95139e-016 -3.18055e-015 7.95139e-016 -0.0160541 0.0029858 0.000855212 -3.93094e-006 8.70343e-006 -5.62753e-007 7.95139e-016 -3.18055e-015 7.95139e-016 -0.0125704 0.00311169 0.00282364 -7.95139e-016 -6.36111e-015 -1.59028e-015 7.95139e-016 -3.18055e-015 7.95139e-016 7.95139e-016 -6.36111e-015 -1.59028e-015 1.32417e-031 -6.36111e-015 1.19271e-015 34.0345 19.6706 37.9498 -53.3106 26.4417 -18.6447 23.3011 -33.016 10.0967 -34.9771 -45.3175 -40.8566 -3.15845e-006 2.95695e-007 1.33823e-006 -1.76556e-031 3.18055e-015 3.18055e-015 1.59028e-015 0 3.18055e-015 -3.15845e-006 2.95695e-007 1.33823e-006 0.0129497 0.00230179 -8.01302e-005 7.95139e-016 0 1.59028e-015 -3.15845e-006 2.95695e-007 1.33823e-006 0.0163107 0.00301985 -0.000868674 -1.76556e-031 6.36111e-015 1.59028e-015 -3.15845e-006 2.95695e-007 1.33823e-006 0.0146103 0.00367646 -0.00326893 -1.32417e-031 -3.18055e-015 -2.38542e-015 -3.15845e-006 2.95695e-007 1.33823e-006 -1.76556e-031 3.18055e-015 3.18055e-015 1.59028e-015 0 3.18055e-015 -60.9673 -19.7525 -22.0371 -176.773 84.5122 175.482 47.7869 35.955 -53.1016 7.90982e-007 1.61398e-006 -4.73724e-006 60.9463 -19.767 22.0121 177.019 84.5139 -175.722 -47.8164 35.9503 53.1092 1.97309e-006 -2.91977e-006 2.78706e-006 
1.63372 39.7213 -0.676796 0 34.3517 -0 0.246508 -1.63614 -0.266524 0.485693 -3.2734 -0.526322 0.485691 -3.27339 -0.52632 -1.63309e-005 -10.7403 2.25153e-005 11.516 -4.53767 0.641407 -38.6353 21.1964 -43.6052 51.0337 29.4274 22.7628 -25.1306 -34.2647 -11.2922 41.765 -43.5942 41.9051 1.59028e-015 3.18055e-015 1.98785e-015 -4.41391e-032 6.36111e-015 3.97569e-016 6.62086e-032 9.54166e-015 -3.97569e-016 1.59028e-015 3.18055e-015 1.98785e-015 -0.0128261 0.00231735 8.377e-005 -7.95139e-016 9.54166e-015 -7.95139e-016 1.59028e-015 3.18055e-015 1.98785e-015 -0.0160763 0.00299289 0.000862253 -7.95139e-016 6.36111e-015 -1.98785e-015 1.59028e-015 3.18055e-015 1.98785e-015 -0.01261 0.00312188 0.00283338 -2.38542e-015 0 -1.59028e-015 1.59028e-015 3.18055e-015 1.98785e-015 -4.41391e-032 6.36111e-015 3.97569e-016 6.62086e-032 9.54166e-015 -3.97569e-016 33.7168 19.3647 38.284 -53.1526 26.4586 -18.699 23.5615 -33.2375 10.2433 -35.0394 -45.1078 -40.7965 -2.38542e-015 -9.54166e-015 -2.38542e-015 -7.95139e-016 -1.59028e-014 -3.18055e-015 -7.95139e-016 -1.59028e-014 -1.59028e-015 -2.38542e-015 -9.54166e-015 -2.38542e-015 0.0129395 0.00230938 -9.44623e-005 7.95139e-016 -3.18055e-015 -2.38542e-015 -2.38542e-015 -9.54166e-015 -2.38542e-015 0.0163064 0.00302773 -0.00087727 -4.76845e-006 -8.22436e-006 5.10038e-006 -2.38542e-015 -9.54166e-015 -2.38542e-015 0.0146077 0.00367273 -0.00326794 7.95139e-016 -9.54166e-015 3.18055e-015 -2.38542e-015 -9.54166e-015 -2.38542e-015 -7.95139e-016 -1.59028e-014 -3.18055e-015 -7.95139e-016 -1.59028e-014 -1.59028e-015 -60.951 -20.3714 -22.1485 -176.731 84.2223 175.441 48.2292 35.7876 -53.3448 -1.77805e-006 -3.24595e-006 3.34397e-006 60.9302 -20.3857 22.1233 176.967 84.2242 -175.671 -48.2582 35.7833 53.3517 1.973e-006 -1.07198e-007 2.78712e-006 
1.63372 39.7513 -0.932833 -4.55398e-009 34.8025 3.60486e-009 0.247001 -1.65621 -0.265564 0.486619 -3.31352 -0.524306 0.486619 -3.31354 -0.524305 -6.71075e-006 -11.5489 9.48455e-006 11.4519 -5.13112 0.751175 -38.3056 20.9067 -43.9494 50.8974 29.4336 22.8178 -25.4051 -34.4827 -11.4512 41.8061 -43.3924 41.8136 2.78454e-006 -1.53163e-007 -3.21118e-006 2.38542e-015 -3.18055e-015 3.97569e-016 2.38542e-015 3.18055e-015 -0 2.78454e-006 -1.53163e-007 -3.21118e-006 -0.0128299 0.00231201 8.51691e-005 -7.95139e-016 9.54166e-015 1.19271e-015 2.78454e-006 -1.53163e-007 -3.21118e-006 -0.0160389 0.00298632 0.000855688 7.95139e-016 6.36111e-015 -1.19271e-015 2.78454e-006 -1.53163e-007 -3.21118e-006 -0.012577 0.00311398 0.00282509 -0 0 1.98785e-015 2.78454e-006 -1.53163e-007 -3.21118e-006 2.38542e-015 -3.18055e-015 3.97569e-016 2.38542e-015 3.18055e-015 -0 33.4017 19.0569 38.6159 -52.9947 26.4752 -18.7533 23.8231 -33.4584 10.3914 -35.1019 -44.8983 -40.7363 -1.59028e-015 3.18055e-015 -1.59028e-015 -7.95139e-016 9.54166e-015 -1.59028e-015 -7.95139e-016 3.18055e-015 -0 -1.59028e-015 3.18055e-015 -1.59028e-015 0.0129596 0.00232669 -8.79344e-005 -2.16132e-006 -8.06602e-006 2.86532e-006 -1.59028e-015 3.18055e-015 -1.59028e-015 0.0163129 0.00303631 -0.000869774 1.59028e-015 3.18055e-015 -0 -1.59028e-015 3.18055e-015 -1.59028e-015 0.0145812 0.00368417 -0.00325804 -1.32417e-031 -3.18055e-015 -2.38542e-015 -1.59028e-015 3.18055e-015 -1.59028e-015 -7.95139e-016 9.54166e-015 -1.59028e-015 -7.95139e-016 3.18055e-015 -0 -60.9359 -20.9898 -22.2602 -176.694 83.9326 175.405 48.6695 35.6182 -53.5856 2.22644e-005 1.63447e-006 7.21975e-006 60.915 -21.0041 22.2348 176.921 83.9344 -175.626 -48.698 35.6142 53.592 1.3418e-015 -9.54166e-015 -3.97569e-016 
